<svg width="36" height="48" viewBox="0 0 36 48" fill="none" xmlns="http://www.w3.org/2000/svg">
<path d="M4.21176 27.9133L4.20923 27.9098C2.1094 24.9936 1 21.57 1 18C1 8.62652 8.62652 1 18 1C27.3735 1 35 8.62652 35 18C35 21.5697 33.8908 24.9933 31.7873 27.9155C31.7872 27.9156 31.7872 27.9157 31.7871 27.9158L31.1578 28.7879L31.1578 28.7879L31.1527 28.795L18.3937 46.8073C18.2985 46.9291 18.1523 47 18 47C17.8475 47 17.7014 46.929 17.6062 46.8073L4.68597 28.578L4.68415 28.5754L4.21176 27.9133ZM11 18C11 21.8614 14.1386 25 18 25C21.8614 25 25 21.8614 25 18C25 14.1386 21.8614 11 18 11C14.1386 11 11 14.1386 11 18Z" fill="#EA2323" stroke="#AE2C2C" stroke-width="2"/>
</svg>
