<svg width="200" height="200" viewBox="0 0 200 200" fill="none" xmlns="http://www.w3.org/2000/svg">
<rect width="200" height="200" rx="1" fill="#FF5959" fill-opacity="0.1"/>
<rect x="0.5" y="0.5" width="199" height="199" rx="0.5" stroke="#CC0000" stroke-opacity="0.1"/>
<circle cx="1" cy="199" r="1" fill="#D10000"/>
<circle cx="199" cy="199" r="1" fill="#D10000"/>
<circle cx="40" cy="199" r="1" fill="#D10000"/>
<circle cx="80" cy="199" r="1" fill="#D10000"/>
<circle cx="120" cy="199" r="1" fill="#D10000"/>
<circle cx="160" cy="199" r="1" fill="#D10000"/>
<circle cx="1" cy="160" r="1" fill="#D10000"/>
<circle cx="199" cy="160" r="1" fill="#D10000"/>
<circle cx="40" cy="160" r="1" fill="#D10000"/>
<circle cx="80" cy="160" r="1" fill="#D10000"/>
<circle cx="120" cy="160" r="1" fill="#D10000"/>
<circle cx="160" cy="160" r="1" fill="#D10000"/>
<circle cx="1" cy="120" r="1" fill="#D10000"/>
<circle cx="199" cy="120" r="1" fill="#D10000"/>
<circle cx="40" cy="120" r="1" fill="#D10000"/>
<circle cx="80" cy="120" r="1" fill="#D10000"/>
<circle cx="120" cy="120" r="1" fill="#D10000"/>
<circle cx="160" cy="120" r="1" fill="#D10000"/>
<circle cx="1" cy="80" r="1" fill="#D10000"/>
<circle cx="199" cy="80" r="1" fill="#D10000"/>
<circle cx="40" cy="80" r="1" fill="#D10000"/>
<circle cx="80" cy="80" r="1" fill="#D10000"/>
<circle cx="120" cy="80" r="1" fill="#D10000"/>
<circle cx="160" cy="80" r="1" fill="#D10000"/>
<circle cx="1" cy="40" r="1" fill="#D10000"/>
<circle cx="199" cy="40" r="1" fill="#D10000"/>
<circle cx="40" cy="40" r="1" fill="#D10000"/>
<circle cx="80" cy="40" r="1" fill="#D10000"/>
<circle cx="120" cy="40" r="1" fill="#D10000"/>
<circle cx="160" cy="40" r="1" fill="#D10000"/>
<circle cx="1" cy="1" r="1" fill="#D10000"/>
<circle cx="199" cy="1" r="1" fill="#D10000"/>
<circle cx="40" cy="1" r="1" fill="#D10000"/>
<circle cx="80" cy="1" r="1" fill="#D10000"/>
<circle cx="120" cy="1" r="1" fill="#D10000"/>
<circle cx="160" cy="1" r="1" fill="#D10000"/>
</svg>
